<svg xmlns="http://www.w3.org/2000/svg" viewBox="0 0 260 240" role="img" aria-label="bottle illustration"><defs><linearGradient id="dark" x1="0" x2="1" y2="1"><stop stop-color="#4a5669"/><stop offset="1" stop-color="#273141"/></linearGradient><linearGradient id="blue" x1="0" x2="1" y2="1"><stop stop-color="#6698b6"/><stop offset="1" stop-color="#2e6186"/></linearGradient><filter id="shadow" x="-40%" y="-30%" width="180%" height="180%"><feDropShadow dx="2" dy="8" stdDeviation="5" flood-color="#172c44" flood-opacity=".13"/></filter></defs><ellipse cx="132" cy="217" rx="64" ry="8" fill="#bcc6d0" opacity=".21"/><g filter="url(#shadow)"><path d="M110 49h40v22h-40z" fill="#244b75"/><rect x="107" y="40" width="46" height="17" rx="5" fill="#2b4766"/><path d="M152 45c26 0 30 30 6 36" fill="none" stroke="#617b99" stroke-width="6"/><path d="M109 67h42l10 22v111q-31 13-62 0V89Z" fill="url(#blue)"/><path d="M107 92v103" stroke="#78b2cd" stroke-width="5" stroke-linecap="round" opacity=".6"/><path d="M100 185h61v14q-30 13-61 0Z" fill="#245c83" opacity=".8"/><path d="M116 119h28m-22 7h16" stroke="#c0dce6" stroke-width="2" stroke-linecap="round"/></g></svg>
