<svg xmlns="http://www.w3.org/2000/svg" viewBox="0 0 260 240" role="img" aria-label="keys illustration"><defs><linearGradient id="dark" x1="0" x2="1" y2="1"><stop stop-color="#4a5669"/><stop offset="1" stop-color="#273141"/></linearGradient><linearGradient id="blue" x1="0" x2="1" y2="1"><stop stop-color="#6698b6"/><stop offset="1" stop-color="#2e6186"/></linearGradient><filter id="shadow" x="-40%" y="-30%" width="180%" height="180%"><feDropShadow dx="2" dy="8" stdDeviation="5" flood-color="#172c44" flood-opacity=".13"/></filter></defs><ellipse cx="132" cy="217" rx="64" ry="8" fill="#bcc6d0" opacity=".21"/><g filter="url(#shadow)"><g transform="rotate(20 130 120)"><circle cx="130" cy="82" r="34" fill="none" stroke="#8a98a9" stroke-width="7"/><circle cx="130" cy="82" r="34" fill="none" stroke="#d0d8e0" stroke-width="2"/><path d="m108 99-31 75 3 17 12-4 4-13 11 4 5-13-9-4 21-55" fill="#a0aebc" stroke="#8493a5" stroke-width="2"/><path d="m111 112-23 62" stroke="#d3dce4" stroke-width="3"/><path d="M140 104v86l9 11 12-11v-13h-8v-12h8v-11h-8v-50" fill="#c4b58c" stroke="#a19370" stroke-width="2"/><path d="M145 116v65" stroke="#e4d8b6" stroke-width="3"/><rect x="115" y="63" width="30" height="25" rx="7" fill="#3d5b80"/><circle cx="129" cy="70" r="3" fill="#a8bdcf"/></g></g></svg>
